# xmcd
#
# Track frame offsets:
#	150
#	16572
#	40217
#	56792
#	71785
#	94282
#	111312
#	128497
#	148502
#	166217
#	185720
#	219562
#
# Disc length: 4440 seconds
#
# Revision: 2
# Processed by: cddbd v1.5.2PL0 Copyright (c) Steve Scherf et al.
# Submitted via: audiograbber 1.83.01
#
DISCID=ac11560c
DTITLE=Raitt, Bonnie - Souls alike
DYEAR=2004
DGENRE=Blues
TTITLE0=I will not be broken
TTITLE1=God was in the water
TTITLE2=Love on one condition
TTITLE3=So close
TTITLE4=Trinkets
TTITLE5=Crooked crown
TTITLE6=Unnecessarily mercenary
TTITLE7=I don't want anything to change
TTITLE8=Deep water
TTITLE9=Two lights in the nighttime
TTITLE10=The bed I made
TTITLE11=Copy Protection ;-)
EXTD=
EXTT0=
EXTT1=
EXTT2=
EXTT3=
EXTT4=
EXTT5=
EXTT6=
EXTT7=
EXTT8=
EXTT9=
EXTT10=
EXTT11=
PLAYORDER=
